<?xml version="1.0" encoding="UTF-8"?>
<svg xmlns="http://www.w3.org/2000/svg" id="Layer_1" data-name="Layer 1" viewBox="0 0 24 24">
  <path d="M23.5,15h-.5v-1c0-5.506-4.07-10.067-9.358-10.864,.224-.323,.358-.714,.358-1.136,0-1.103-.897-2-2-2s-2,.897-2,2c0,.422,.133,.813,.358,1.136C5.07,3.933,1,8.494,1,14v1H.5c-.276,0-.5,.224-.5,.5s.224,.5,.5,.5H5.786c-2.083,1.11-3.667,3.069-4.256,5.494l-.477,1.965c-.065,.269,.1,.539,.368,.604,.262,.064,.539-.097,.604-.368l.477-1.965c.819-3.374,3.816-5.73,7.288-5.73h3.71c.905,0,1.642,.737,1.642,1.643,0,.812-.606,1.511-1.41,1.625l-5.161,.737c-.273,.039-.463,.292-.424,.565s.291,.453,.566,.425l5.16-.737c.503-.072,.954-.288,1.322-.599,.099-.029,3.71-3.232,3.79-3.282,.604-.548,1.611-.475,2.132,.148,.541,.622,.479,1.573-.146,2.128l-4.813,4.48c-.202,.188-.213,.505-.025,.707,.189,.202,.505,.213,.707,.025l4.804-4.473c.984-.873,1.107-2.361,.32-3.394h1.535c.276,0,.5-.224,.5-.5s-.224-.5-.5-.5ZM11,2c0-.552,.449-1,1-1s1,.448,1,1-.449,1-1,1-1-.448-1-1ZM2,15v-1c0-5.514,4.486-10,10-10s10,4.486,10,10v1H2Zm14.131,2.537c-.023-.582-.236-1.111-.578-1.537h2.343l-1.765,1.537Z"/>
</svg>
