<?xml version="1.0" encoding="UTF-8"?>
<svg xmlns="http://www.w3.org/2000/svg" id="Layer_1" data-name="Layer 1" viewBox="0 0 24 24">
  <path d="M6.5,5c1.378,0,2.5-1.122,2.5-2.5S7.878,0,6.5,0s-2.5,1.122-2.5,2.5,1.122,2.5,2.5,2.5Zm0-4c.827,0,1.5,.673,1.5,1.5s-.673,1.5-1.5,1.5-1.5-.673-1.5-1.5,.673-1.5,1.5-1.5Zm11,4c1.378,0,2.5-1.122,2.5-2.5s-1.122-2.5-2.5-2.5-2.5,1.122-2.5,2.5,1.122,2.5,2.5,2.5Zm0-4c.827,0,1.5,.673,1.5,1.5s-.673,1.5-1.5,1.5-1.5-.673-1.5-1.5,.673-1.5,1.5-1.5Zm6,1c-.276,0-.5,.224-.5,.5v3.5H1V2.5c0-.276-.224-.5-.5-.5s-.5,.224-.5,.5v3.5c0,.551,.449,1,1,1H3.492l-1.373,7.329c-.196,1.047-.13,2.138,.19,3.153l1.958,6.17c.067,.213,.264,.349,.477,.349,.05,0,.101-.008,.151-.023,.263-.084,.409-.364,.325-.628l-1.958-6.169c-.121-.383-.192-.78-.227-1.18h7.587c.177,0,.268,.116,.299,.167,.031,.05,.094,.183,.015,.341l-1.884,3.769c-.124,.247-.023,.548,.224,.671,.072,.036,.148,.053,.223,.053,.184,0,.36-.102,.448-.276l1.884-3.769c.211-.421,.189-.912-.059-1.313-.248-.402-.678-.642-1.15-.642h-3.411l1.417-8h6.397l-2.004,8.703c-.086,.577,.082,1.161,.462,1.603,.38,.442,.933,.695,1.516,.695h.837l-1.623,5.355c-.08,.264,.069,.543,.333,.623,.048,.015,.097,.021,.145,.021,.215,0,.413-.139,.479-.355l1.71-5.645h1.064l-.299,1c-.12,.401-.065,.838,.149,1.197l2.122,3.559c.093,.157,.259,.244,.43,.244,.087,0,.175-.022,.255-.07,.237-.142,.315-.448,.173-.686l-2.122-3.56c-.072-.119-.09-.265-.05-.398l.385-1.286h1.011c.586,0,1.142-.256,1.522-.703,.381-.446,.546-1.035,.45-1.628l-1.638-8.669h2.666c.551,0,1-.449,1-1V2.5c0-.276-.224-.5-.5-.5ZM6.196,15H3.041c.016-.163,.03-.327,.06-.488l1.407-7.512h3.104l-1.417,8Zm14.791,.841c.046,.29-.036,.584-.227,.808s-.468,.352-.761,.352h-5c-.292,0-.567-.127-.758-.348-.19-.221-.274-.513-.238-.764l2.048-8.889h3.264l1.671,8.841Z"/>
</svg>
